<svg width="1859" height="303" viewBox="0 0 1859 303" fill="none" xmlns="http://www.w3.org/2000/svg">
<ellipse cx="37.2286" cy="38.4621" rx="37.2286" ry="38.1548" fill="#4285F4"/>
<ellipse cx="613.219" cy="244.497" rx="24.819" ry="25.4365" fill="#34A853"/>
<ellipse cx="495.388" cy="120.367" rx="24.819" ry="25.4365" fill="#FBBC05"/>
<ellipse cx="1821.22" cy="219.57" rx="37.2286" ry="38.1548" fill="#34A853"/>
<ellipse cx="1251.87" cy="155.978" rx="24.819" ry="25.4365" fill="#EA4335"/>
<path d="M91.8859 242.88L113.058 302.496L52.0957 291.48L91.8859 242.88Z" fill="#4285F4"/>
<path d="M645.546 38.5109L666.718 98.1274L605.756 87.1107L645.546 38.5109Z" fill="#EA4335"/>
<path d="M1123.77 213.218L1144.94 272.835L1083.98 261.818L1123.77 213.218Z" fill="#34A853"/>
<path d="M289.739 22.1384L310.911 81.7549L249.949 70.7382L289.739 22.1384Z" fill="#34A853"/>
<path d="M1398.35 56.1036L1419.52 115.72L1358.56 104.703L1398.35 56.1036Z" fill="#FBBC05"/>
<path d="M1113.03 21.104L1134.2 80.7205L1073.24 69.7038L1113.03 21.104Z" fill="#FBBC05"/>
<rect width="50.2593" height="50.2593" transform="matrix(0.698366 -0.715741 0.698366 0.715741 825 40.9727)" fill="#34A853"/>
<rect width="50.2593" height="50.2593" transform="matrix(0.698366 -0.715741 0.698366 0.715741 1354.94 231.449)" fill="#4285F4"/>
<rect width="50.2593" height="50.2593" transform="matrix(0.698366 -0.715741 0.698366 0.715741 229.379 265.261)" fill="#FBBC05"/>
<rect width="50.2593" height="50.2593" transform="matrix(0.698366 -0.715741 0.698366 0.715741 1715.1 59.2754)" fill="#EA4335"/>
<rect width="50.2593" height="50.2593" transform="matrix(0.698366 -0.715741 0.698366 0.715741 743.572 230.608)" fill="#4285F4"/>
</svg>
