<svg width="75" height="75" viewBox="0 0 75 75" fill="none" xmlns="http://www.w3.org/2000/svg">
<circle cx="37.5" cy="37.5" r="37.5" fill="#FBBC05"/>
<path d="M36.8333 17C25.3271 17 16 26.3271 16 37.8333C16 49.3396 25.3271 58.6667 36.8333 58.6667C48.3396 58.6667 57.6667 49.3396 57.6667 37.8333C57.6667 26.3271 48.3396 17 36.8333 17ZM42.2208 46.1667L35.3604 39.3062C34.9688 38.9146 34.75 38.3854 34.75 37.8333V27.4167C34.75 26.2667 35.6833 25.3333 36.8333 25.3333C37.9833 25.3333 38.9167 26.2667 38.9167 27.4167V36.9708L45.1667 43.2208C45.9792 44.0333 45.9792 45.3542 45.1667 46.1667C44.3542 46.9792 43.0333 46.9792 42.2208 46.1667Z" fill="white"/>
</svg>
