<svg width="75" height="75" viewBox="0 0 75 75" fill="none" xmlns="http://www.w3.org/2000/svg">
<circle cx="37.5" cy="37.5" r="37.5" fill="#34A853"/>
<path d="M33.7467 17C32.7487 17 31.8957 17.7054 31.704 18.6846L31.0082 22.2572C29.2983 22.9038 27.7172 23.8071 26.3289 24.9468L22.9027 23.7668C21.959 23.4418 20.9206 23.832 20.4206 24.6945L17.2794 30.1388C16.7815 31.0034 16.9627 32.101 17.7148 32.7552L20.4613 35.1437C20.3185 36.0215 20.2253 36.9152 20.2253 37.8333C20.2253 38.7515 20.3185 39.6451 20.4613 40.5229L17.7148 42.9115C16.9627 43.5656 16.7815 44.6632 17.2794 45.5278L20.4206 50.9722C20.9186 51.8368 21.959 52.2269 22.9027 51.904L26.3289 50.724C27.7168 51.8629 29.2991 52.7632 31.0082 53.4095L31.704 56.9821C31.8957 57.9613 32.7487 58.6667 33.7467 58.6667H40.0373C41.0353 58.6667 41.8883 57.9613 42.08 56.9821L42.7758 53.4095C44.4857 52.7629 46.0668 51.8596 47.4552 50.7199L50.8813 51.8999C51.825 52.2249 52.8634 51.8368 53.3634 50.9722L56.5046 45.5238C57.0025 44.6592 56.8213 43.5656 56.0692 42.9115L53.3227 40.5229C53.4655 39.6451 53.5587 38.7515 53.5587 37.8333C53.5587 36.9152 53.4655 36.0215 53.3227 35.1437L56.0692 32.7552C56.8213 32.101 57.0025 31.0034 56.5046 30.1388L53.3634 24.6945C52.8654 23.8299 51.825 23.4398 50.8813 23.7627L47.4552 24.9427C46.0672 23.8037 44.4849 22.9035 42.7758 22.2572L42.08 18.6846C41.8883 17.7054 41.0353 17 40.0373 17H33.7467ZM36.892 29.5C41.4941 29.5 45.2253 33.2312 45.2253 37.8333C45.2253 42.4354 41.4941 46.1667 36.892 46.1667C32.2899 46.1667 28.5587 42.4354 28.5587 37.8333C28.5587 33.2312 32.2899 29.5 36.892 29.5Z" fill="white"/>
</svg>
