<svg width="75" height="75" viewBox="0 0 75 75" fill="none" xmlns="http://www.w3.org/2000/svg">
<circle cx="37.5" cy="37.5" r="37.5" fill="#4285F4"/>
<path d="M25.6703 23.0279C17.1226 23.5554 10.5667 31.4445 12.2711 40.4351C13.3586 46.1747 17.9878 50.806 23.7294 51.8935C31.536 53.3734 38.4987 48.6219 40.5466 41.7494H49.4985V43.8327C49.4985 46.1348 51.363 47.9994 53.6651 47.9994C55.9672 47.9994 57.8318 46.1348 57.8318 43.8327V41.7494C60.1339 41.7494 61.9985 39.8848 61.9985 37.5827C61.9985 35.2807 60.1339 33.4161 57.8318 33.4161H40.5385C39.0389 28.2979 34.7266 24.2744 29.4342 23.272C28.1501 23.0285 26.8915 22.9525 25.6703 23.0279ZM26.5818 31.3327C30.0339 31.3327 32.8318 34.1307 32.8318 37.5827C32.8318 41.0348 30.0339 43.8327 26.5818 43.8327C23.1297 43.8327 20.3318 41.0348 20.3318 37.5827C20.3318 34.1307 23.1297 31.3327 26.5818 31.3327Z" fill="white"/>
</svg>
