<svg width="75" height="75" viewBox="0 0 75 75" fill="none" xmlns="http://www.w3.org/2000/svg">
<circle cx="37.5" cy="37.5" r="37.5" fill="#EA4335"/>
<path d="M37 13C26.4588 13 17.8823 21.5766 17.8823 32.1177V49.7645C17.8823 52.1975 19.8613 54.1766 22.294 54.1766C24.727 54.1766 26.706 52.1975 26.706 49.7645V35.0589C26.706 32.6262 24.727 30.6472 22.294 30.6472C21.7988 30.6472 21.3304 30.7475 20.8852 30.8986C21.5127 22.5478 28.4928 15.9411 37 15.9411C45.5026 15.9411 52.4808 22.5417 53.114 30.8867C52.6715 30.7353 52.2004 30.6472 51.706 30.6472C49.273 30.6472 47.294 32.6262 47.294 35.0589V49.7645C47.294 52.1975 49.273 54.1766 51.706 54.1766C52.2241 54.1766 52.7143 54.0706 53.1766 53.9058V55.6472C53.1766 56.4586 52.5159 57.1177 51.706 57.1177H41.1409C40.5316 55.4095 38.9146 54.1766 37 54.1766C34.5674 54.1766 32.5883 56.1557 32.5883 58.5883C32.5883 61.0209 34.5674 63 37 63C38.9146 63 40.5316 61.7667 41.1409 60.0589H51.706C54.1387 60.0589 56.1177 58.0798 56.1177 55.6472C56.1177 46.8017 56.1177 40.9728 56.1177 32.1177C56.1177 21.5766 47.5412 13 37 13V13Z" fill="white"/>
<path d="M59.0589 33.8591V50.9642C60.7667 50.3554 62 48.7384 62 46.8234V38C62 36.0854 60.7667 34.4683 59.0589 33.8591Z" fill="white"/>
<path d="M12 38V46.8234C12 48.7384 13.2333 50.3554 14.9411 50.9642V33.8591C13.2333 34.4683 12 36.0854 12 38Z" fill="white"/>
</svg>
