<svg width="27" height="24" viewBox="0 0 27 24" fill="none" xmlns="http://www.w3.org/2000/svg">
<g clip-path="url(#clip0)">
<path d="M0.728161 4.46044C4.32151 7.25002 10.6267 12.1577 12.4799 13.688C12.7287 13.8945 12.9955 13.9995 13.2725 13.9995C13.549 13.9995 13.8153 13.8955 14.0636 13.6899C15.9183 12.1582 22.2235 7.25002 25.8169 4.46044C26.0407 4.28709 26.0748 3.98241 25.8936 3.77048C25.4749 3.28078 24.8507 3 24.1816 3H2.36345C1.69443 3 1.07011 3.28078 0.651457 3.77053C0.470332 3.98241 0.50444 4.28709 0.728161 4.46044Z" fill="white"/>
<path d="M26.0471 5.97215C25.8537 5.88965 25.6263 5.91843 25.4654 6.04443C21.4804 9.14109 16.3945 13.1104 14.7944 14.4321C13.8963 15.1753 12.6498 15.1753 11.7496 14.4311C10.044 13.0224 4.33269 8.57175 1.0797 6.04439C0.917749 5.91839 0.689783 5.89059 0.498021 5.9721C0.305237 6.05418 0.181641 6.23095 0.181641 6.42576V19C0.181641 20.103 1.16013 21 2.36348 21H24.1817C25.385 21 26.3635 20.103 26.3635 19V6.42576C26.3635 6.23095 26.2399 6.05371 26.0471 5.97215Z" fill="white"/>
</g>
<defs>
<clipPath id="clip0">
</clipPath>
</defs>
</svg>
