<svg width="27" height="24" viewBox="0 0 27 24" fill="none" xmlns="http://www.w3.org/2000/svg">
<g clip-path="url(#clip0)">
<path d="M0.272461 9V21C0.272461 21.8284 1.00505 22.5 1.90882 22.5H6.81792V7.5H1.90882C1.00505 7.5 0.272461 8.17154 0.272461 9Z" fill="white"/>
<path d="M23.4323 8.99967H18.5983C18.1756 8.99967 17.9639 8.74113 17.8928 8.6298C17.8216 8.51921 17.6778 8.22404 17.8824 7.88566L19.5866 5.07243C19.9606 4.45646 19.9989 3.73209 19.6929 3.08536C19.3869 2.4379 18.7828 1.96842 18.0358 1.79776L16.8341 1.52237C16.5416 1.45499 16.2316 1.54068 16.0279 1.74796L9.5032 8.39249C8.82644 9.08317 8.4541 9.97379 8.4541 10.901V18.7497C8.4541 20.8173 10.2894 22.4997 12.545 22.4997L20.6845 22.4989C22.5222 22.4989 24.145 21.3644 24.63 19.7406L26.3766 12.393C26.4277 12.1886 26.4541 11.9791 26.4541 11.7697C26.4541 10.2426 25.0982 8.99966 23.4322 8.99966L23.4323 8.99967Z" fill="white"/>
</g>
<defs>
<clipPath id="clip0">
</clipPath>
</defs>
</svg>
