<svg width="101" height="107" viewBox="0 0 101 107" fill="none" xmlns="http://www.w3.org/2000/svg">
<path d="M71.232 58.5699C58.003 77.3401 45.5608 68.1507 34.9425 57.2446C24.3242 46.3384 23.3558 29.2494 32.7796 19.0752C42.2034 8.90101 58.4508 9.4944 69.0691 20.4006C79.6874 31.3067 80.6558 48.3957 71.232 58.5699Z" fill="#FBBC05"/>
<path d="M75.3665 50.5366C76.9105 45.5026 76.9161 39.9491 75.3827 34.6074C81.8478 43.5393 71.1029 23.1529 67.0303 19.379C62.9578 15.6051 57.1888 15.4362 52.007 14.5551C47.6022 15.2413 41.6582 14.4445 37.1864 16.7654C32.7147 19.0863 29.7093 21.7596 27.5176 26.4678C25.3258 31.1759 24.6117 36.609 25.4695 42.0515C26.3272 47.4939 28.7165 52.6903 32.3225 56.9562C35.9286 61.2221 33.4966 59.0287 38.585 60.6204L50.8226 40.1177L75.3665 50.5366Z" fill="#EA4335"/>
<path d="M83.4835 69.9979C58.6625 47.3799 31.0061 85.8369 20.3878 74.9308C9.7695 64.0246 26.5502 20.2666 36.0891 15.8928C59.6566 38.5899 61.23 12.5799 71.8483 23.486C82.4667 34.3922 95.3076 67.7635 83.4835 69.9979Z" fill="#4285F4"/>
<g clip-path="url(#clip0)">
<path d="M36.1283 36.5198L38.5373 55.0212C38.7029 56.2932 39.822 57.2892 41.0242 57.2346L67.2528 56.0429C68.4594 55.9881 69.3038 54.9087 69.1374 53.6309L66.7284 35.1295L36.1283 36.5198V36.5198Z" fill="#787878"/>
<path d="M64.5425 35.2289L38.3139 36.4206L40.7229 54.9221L66.9515 53.7304L64.5425 35.2289Z" fill="#FAFAFA"/>
<path d="M63.6424 28.3139L37.4137 29.5056C36.2061 29.5605 35.3627 30.6398 35.5291 31.9176L36.1283 36.5198L66.7284 35.1295L66.1292 30.5273C65.9628 29.2495 64.85 28.259 63.6424 28.3139Z" fill="#333333"/>
<path d="M39.1075 34.0815C39.7111 34.0541 40.133 33.5141 40.0498 32.8755C39.9667 32.2369 39.41 31.7414 38.8064 31.7688C38.2028 31.7962 37.7809 32.3362 37.8641 32.9748C37.9472 33.6134 38.5039 34.1089 39.1075 34.0815Z" fill="#CB5641"/>
<path d="M43.479 33.8829C44.0826 33.8554 44.5044 33.3155 44.4213 32.6769C44.3381 32.0382 43.7814 31.5428 43.1779 31.5702C42.5743 31.5976 42.1524 32.1376 42.2356 32.7762C42.3187 33.4148 42.8754 33.9103 43.479 33.8829Z" fill="#FBBC05"/>
<path d="M47.8504 33.6842C48.454 33.6568 48.8759 33.1169 48.7927 32.4783C48.7096 31.8396 48.1529 31.3441 47.5493 31.3716C46.9457 31.399 46.5238 31.9389 46.607 32.5776C46.6901 33.2162 47.2468 33.7117 47.8504 33.6842Z" fill="#34A853"/>
<path d="M57.4065 39.1008L56.0741 40.806L60.4709 44.7193L57.1389 48.9837L58.8971 50.5485L63.5615 44.5788L57.4065 39.1008Z" fill="#5886C5"/>
<path d="M46.3686 39.6023L41.7042 45.5719L47.8592 51.05L49.1916 49.3447L44.7948 45.4315L48.1268 41.1671L46.3686 39.6023Z" fill="#5886C5"/>
<path d="M52.0323 52.0572L55.3832 39.0113L53.2488 38.2178L49.8979 51.2636L52.0323 52.0572Z" fill="#5886C5"/>
</g>
<defs>
<clipPath id="clip0">
<rect width="31.4526" height="31.863" fill="white" transform="matrix(0.972897 -0.044204 0.132308 1.01615 34.9254 27.2807)"/>
</clipPath>
</defs>
</svg>
