<svg xmlns="http://www.w3.org/2000/svg" width="20" height="14" viewBox="0 0 20 14"><g><g><g/><g><g><g><path fill="#fff" d="M19.931 7.305a11.042 11.042 0 0 1-3.991 4.506A10.98 10.98 0 0 1 10 13.548c-2.114 0-4.168-.6-5.94-1.737A11.042 11.042 0 0 1 .07 7.304a.693.693 0 0 1 .01-.621A11.043 11.043 0 0 1 4.06 2.197 10.98 10.98 0 0 1 10 .46c2.114 0 4.168.6 5.94 1.737a11.042 11.042 0 0 1 4.013 4.557.696.696 0 0 1-.021.55zm-1.4-.301a9.692 9.692 0 0 0-8.53-5.158 9.692 9.692 0 0 0-8.532 5.158A9.692 9.692 0 0 0 10 12.162c3.566 0 6.877-2.014 8.531-5.158z"/></g><g><path fill="#fff" d="M13.044 7.002a3.046 3.046 0 0 1-3.042 3.042A3.046 3.046 0 0 1 6.96 7.002a3.046 3.046 0 0 1 3.042-3.042 3.046 3.046 0 0 1 3.042 3.042zm-1.386 0c0-.913-.743-1.656-1.656-1.656-.913 0-1.656.743-1.656 1.656 0 .913.743 1.656 1.656 1.656.913 0 1.656-.743 1.656-1.656z"/></g></g></g></g></g></svg>