<svg xmlns="http://www.w3.org/2000/svg" width="202" height="206" viewBox="0 0 202 206"><g><g><g/><g><g><path fill="#ffdd40" d="M177.066 171.548c15.216-17.188 24.42-39.586 24.42-64.084 0-54.165-44.99-98.074-100.488-98.074S.51 53.299.51 107.464c0 24.497 9.204 46.896 24.42 64.084h152.136z"/></g><g><g><path fill="#41416b" d="M61.31 26.372a3.16 3.16 0 0 1-1.799 2.852c-14.738 6.998-6.792 40.723-6.792 40.723 1.48.097 3.877.681 5.032 1.228.283-1.719.745-3.41 1.397-5.046a20.958 20.958 0 0 1 1.896-3.695 11.135 11.135 0 0 0 1.778-6.931c-.53-7.036-1.122-20.073 8.393-24.251 8.062-3.54 17.95-1.49 24.257.556a20.494 20.494 0 0 0 12.627 0c6.306-2.047 16.194-4.097 24.256-.556 9.489 4.166 8.922 17.136 8.398 24.19-.182 2.453.415 4.913 1.774 6.993a21.097 21.097 0 0 1 1.943 3.814 24.22 24.22 0 0 1 1.35 4.926c1.456-.688 4.385-1.438 6.166-1.193.218-7.374.915-15.324.915-15.324C166.33-9.53 61.398-13.423 61.311 26.372z"/></g></g><g><path fill="#35355e" d="M97.589.65c-19.356.84-36.244 9.77-36.28 25.725a3.16 3.16 0 0 1-1.798 2.852c-14.738 6.997-6.792 40.722-6.792 40.722 1.48.097 3.877.682 5.032 1.228.283-1.718.745-3.41 1.397-5.046a20.985 20.985 0 0 1 1.895-3.694 11.134 11.134 0 0 0 1.779-6.932c-.53-7.036-1.123-20.072 8.393-24.25 5.766-2.533 12.466-2.205 18.123-1.064v-.827S78.92 10.355 97.589.65z"/></g><g><path fill="#fcad6d" d="M154.704 70.478c-2.207-1.973-6.603-.973-8.504.236.417 2.53.44 5.12.08 7.676l-2.242 15.943a61.53 61.53 0 0 1-.118 3.785c5.469 1.61 8.186-3.182 8.644-6.47.197-1.416.519-2.811.966-4.173 1.454-4.435 6.703-12.051 1.174-16.997z"/></g><g><g><path fill="#fd995b" d="M150.55 85.558c-2.03 0-3.822-.97-4.932-2.458l-1.58 11.228c0 1.286-.042 2.546-.118 3.785 5.47 1.61 8.186-3.182 8.644-6.47.197-1.416.519-2.811.966-4.173.376-1.147 1.007-2.509 1.639-3.98a6.149 6.149 0 0 1-4.619 2.068z"/></g></g><g><path fill="#fcad6d" d="M111.576 181.994c16.569-9.704 20.66-25.523 21.668-33.099-2.293-5.248-3.026-11.684-3.2-16.635a59.748 59.748 0 0 1-8.712 8.127c-5.576 4.226-12.457 6.522-19.544 6.522-7.086 0-13.968-2.296-19.544-6.522a59.758 59.758 0 0 1-8.711-8.127c-.158 4.484-.774 10.187-2.593 15.123.655 6.76 4.073 24.203 21.844 34.611 1.497.877 2.112 2.544 1.742 4.038 1.743.915 4.183 2.335 6.473 4.154 3.76-2.988 7.929-4.902 8.74-5.262a3.673 3.673 0 0 1 1.837-2.93z"/></g><g><path fill="#fd995b" d="M90.486 180.547c8.58-9.912 11.372-24 12.233-33.657-.31.01-.62.02-.93.02-7.087 0-13.969-2.296-19.545-6.523a59.758 59.758 0 0 1-8.711-8.127c-.158 4.485-.774 10.187-2.593 15.123.625 6.456 3.782 22.654 19.546 33.164z"/></g><g><path fill="#41416b" d="M57.012 71.02l-.002.002"/></g><g><path fill="#fcad6d" d="M48.877 70.478c2.206-1.973 6.602-.973 8.503.236-.416 2.53-.44 5.12-.08 7.676l2.243 15.943c0 1.286.041 2.546.117 3.785-5.469 1.61-8.185-3.182-8.643-6.47a23.973 23.973 0 0 0-.966-4.173c-1.455-4.435-6.704-12.051-1.174-16.997z"/></g><g><path fill="#f9ba8f" d="M145.317 66.248a21.056 21.056 0 0 0-1.943-3.815c-1.358-2.08-1.955-4.54-1.773-6.992.524-7.054.243-20.85-9.246-25.018-8.061-3.54-17.949-1.49-24.255.556a20.5 20.5 0 0 1-12.629 0c-6.306-2.046-16.194-4.096-24.255-.556-9.515 4.18-9.77 18.043-9.24 25.079a11.137 11.137 0 0 1-1.78 6.932 20.956 20.956 0 0 0-1.894 3.694c-1.613 4.042-2.083 8.426-1.479 12.719l2.244 15.947c0 22.925 12.54 38.508 23.205 46.592 5.568 4.219 12.438 6.511 19.514 6.511 7.075 0 13.946-2.292 19.514-6.511 10.666-8.084 23.205-23.667 23.205-46.593l2.243-15.943c.598-4.25.144-8.591-1.43-12.602z"/></g><g><g><path fill="#fd995b" d="M53.028 85.558c2.03 0 3.823-.97 4.933-2.458l1.58 11.228c0 1.286.041 2.546.118 3.785-5.47 1.61-8.186-3.182-8.644-6.47a23.973 23.973 0 0 0-.966-4.173c-.377-1.147-1.007-2.509-1.639-3.98a6.146 6.146 0 0 0 4.618 2.068z"/></g></g><g><g><path fill="#fcad6d" d="M95.692 141.385c-8.456-8.083-18.397-23.666-18.397-46.592l-1.779-15.947c-.711-6.385.565-12.336 2.675-16.413 1.069-2.064 1.555-4.498 1.41-6.932-.42-7.035-.218-20.9 7.326-25.078a14.58 14.58 0 0 1 2.418-1.063c-5.656-1.141-12.356-1.47-18.122 1.063-9.516 4.179-9.77 18.043-9.24 25.078a11.136 11.136 0 0 1-1.78 6.932c-2.698 4.132-4.262 10.092-3.373 16.413l2.244 15.947c0 22.926 12.539 38.509 23.205 46.592 6.992 5.299 15.97 7.511 24.74 6.091-4.113-.839-8.011-2.921-11.327-6.091z"/></g></g><g><path fill="#fff5ee" d="M117.095 78.353c0-.75.144-1.464.4-2.113-.999.479-1.806 1.02-2.38 1.478-1.341 1.068-3.672 2.421-4.948 3.136-.242.136-.143.495.135.495h.126c1.184 0 2.362.18 3.487.542 1.95.627 3.817.94 5.544 1.042-1.419-.95-2.364-2.645-2.364-4.58z"/></g><g><path fill="#fff5ee" d="M132.97 79.519c-2.33-2.134-4.57-3.365-6.643-3.989.466.82.735 1.783.735 2.815 0 1.687-.719 3.191-1.842 4.179 1.696-.343 3.02-.818 3.84-1.183 1.682-.747 2.954-1.051 3.71-1.175a.375.375 0 0 0 .2-.647z"/></g><g><path fill="#41416b" d="M117.183 76.395a5.04 5.04 0 0 0-.443 2.07c0 1.904 1.057 3.566 2.628 4.462a22.45 22.45 0 0 0 5.955-.416c1.22-.947 2.004-2.407 2.004-4.047a5.056 5.056 0 0 0-.911-2.898c-3.796-1.172-7.033-.297-9.233.83z"/></g><g><path fill="#35355e" d="M121.979 80.76c1.12 0 2.03-.886 2.03-1.98 0-1.093-.91-1.98-2.03-1.98-1.12 0-2.029.887-2.029 1.98 0 1.094.908 1.98 2.029 1.98z"/></g><g><path fill="#41416b" d="M137.452 72.193c-.304-1.945-1.511-6.467-6.225-7.512-4.759-1.056-14.794.934-18.857 1.83a2.965 2.965 0 0 0-2.23 2.088l-.837 3.013c-.071.256.17.49.431.418 3.08-.844 17.264-4.587 21.585-3.234 3.295 1.031 4.988 2.639 5.736 3.566.141.176.431.053.397-.169z"/></g><g><path fill="#fff5ee" d="M87.564 78.353c0-.75-.144-1.464-.4-2.113.999.479 1.806 1.02 2.38 1.478 1.34 1.068 3.672 2.421 4.948 3.136.241.136.142.495-.136.495h-.126c-1.184 0-2.362.18-3.486.542-1.951.627-3.818.94-5.544 1.042 1.418-.95 2.364-2.645 2.364-4.58z"/></g><g><path fill="#fff5ee" d="M71.692 79.519c2.331-2.134 4.572-3.365 6.644-3.989a5.685 5.685 0 0 0-.736 2.815c0 1.687.72 3.191 1.843 4.179-1.696-.343-3.02-.818-3.84-1.183-1.683-.747-2.954-1.051-3.711-1.175a.375.375 0 0 1-.2-.647z"/></g><g><path fill="#41416b" d="M87.474 76.395a5.04 5.04 0 0 1 .443 2.07c0 1.904-1.056 3.566-2.628 4.462a22.455 22.455 0 0 1-5.955-.416c-1.22-.947-2.004-2.407-2.004-4.047 0-1.074.336-2.071.911-2.898 3.797-1.172 7.034-.297 9.233.83z"/></g><g><path fill="#35355e" d="M82.679 80.76c1.12 0 2.03-.886 2.03-1.98 0-1.093-.91-1.98-2.03-1.98-1.12 0-2.029.887-2.029 1.98 0 1.094.908 1.98 2.029 1.98z"/></g><g><path fill="#41416b" d="M67.213 72.193c.303-1.945 1.51-6.467 6.224-7.512 4.759-1.056 14.795.934 18.857 1.83a2.965 2.965 0 0 1 2.23 2.088l.838 3.013c.07.256-.17.49-.432.418-3.08-.844-17.264-4.587-21.585-3.234-3.295 1.031-4.987 2.639-5.735 3.566-.142.176-.432.053-.397-.169z"/></g><g><path fill="#fcad6d" d="M114.22 118.411l-4.53 1.744a2.494 2.494 0 0 1-1.597.064l-5.222-1.537-5.22 1.537a2.494 2.494 0 0 1-1.597-.064l-4.53-1.744c-1.253-.482-1.867-1.863-1.374-3.084.493-1.218 1.905-1.823 3.16-1.34l3.744 1.44 5.092-1.498a2.472 2.472 0 0 1 1.453 0l5.09 1.499 3.745-1.441c1.25-.48 2.665.115 3.16 1.34.493 1.222-.122 2.602-1.374 3.084z"/></g><g><path fill="#fcad6d" d="M104.583 124.12h-3.127c-1.345 0-2.436 1.064-2.436 2.378 0 1.313 1.09 2.378 2.436 2.378h3.127c1.346 0 2.437-1.065 2.437-2.378 0-1.313-1.091-2.378-2.437-2.378z"/></g><g><g><path fill="#35355e" d="M120.284 65.04a118.083 118.083 0 0 0-7.913 1.471 2.966 2.966 0 0 0-2.231 2.088l-.837 3.012c-.071.256.17.49.431.418 1.708-.467 6.83-1.825 11.79-2.713-2.04-.384-2.788-2.885-1.24-4.276z"/></g></g><g><g><path fill="#35355e" d="M81.496 64.668c-3.063-.334-6.037-.436-8.06.013-4.713 1.045-5.92 5.567-6.223 7.512-.035.221.255.345.397.169.748-.928 2.44-2.536 5.735-3.567 1.645-.515 4.718-.29 8.064.23a2.46 2.46 0 0 1 .087-4.357z"/></g></g><g><path fill="#41416b" d="M103.55 103.933c-.447.088-.918.088-1.366 0-19.692-3.893-21.519 8.687-21.228 15.1.05 1.091 1.626 1.568 2.527.782 3.001-2.621 7.464-2.824 12.963-4.125 3.952-.936 5.507-2.615 6.112-3.898.11-.235.508-.235.619 0 .605 1.283 2.16 2.962 6.112 3.898 5.499 1.301 9.962 1.504 12.963 4.125.9.786 2.477.31 2.526-.782.292-6.413-1.535-18.993-21.227-15.1z"/></g><g><path fill="#fcad6d" d="M94.694 102.039l1.857-.382c3.45 3.327 9.186 3.321 12.631 0l1.858.382c1.334.273 2.649-.56 2.93-1.866.281-1.305-.574-2.585-1.911-2.86l-3.333-.685c-1.085-.223-2.143.202-2.656 1.161-1.348 2.034-5.057 2.037-6.406 0-.513-.958-1.572-1.383-2.657-1.16l-3.332.684c-1.337.275-2.193 1.555-1.911 2.86.28 1.305 1.593 2.139 2.93 1.866z"/></g><g><path fill="#00adf4" d="M92.522 183.573L58.5 156.41c-9.555 2.706-18.484 6.517-27.29 11.364-2.847 1.567-4.66 2.698-6.62 3.37 18.43 21.046 45.824 34.39 76.415 34.39 2.056 0 4.095-.067 6.12-.186v-6.885c.001-8.685-14.603-14.89-14.603-14.89z"/></g><g><path fill="#059ae5" d="M53.865 194.085L67.86 184.9c3.956-8.448 8.567-10.98 11.793-11.6L58.5 156.41c-9.555 2.706-18.484 6.517-27.29 11.364-2.847 1.567-4.66 2.698-6.62 3.37a100.538 100.538 0 0 0 29.275 22.941z"/></g><g><path fill="#26c6f7" d="M101 205.534c30.591 0 57.985-13.344 76.416-34.39-1.96-.672-3.773-1.803-6.62-3.37-8.807-4.847-17.736-8.658-27.29-11.364l-34.022 27.163s-14.604 6.205-14.604 14.89v6.885c2.025.118 4.065.186 6.12.186z"/></g><g><path fill="#49dafc" d="M145.252 155.01l-10.712-8.764c-.8-.655-2.02-.16-2.112.856-.58 6.372-3.765 23.532-21.159 33.719-2.126 1.245-2.417 4.137-.549 5.729l10.562 9.003c1.913 1.63 4.79 1.527 6.58-.232 5.655-5.565 16.723-18.625 18.697-37.176a3.567 3.567 0 0 0-1.307-3.135z"/></g><g><path fill="#26c6f7" d="M59.106 155.01l10.712-8.764c.8-.655 2.02-.16 2.113.856.58 6.372 3.765 23.532 21.158 33.719 2.127 1.245 2.417 4.137.55 5.729l-10.562 9.003c-1.913 1.63-4.79 1.527-6.58-.232-5.656-5.565-16.723-18.625-18.697-37.176a3.568 3.568 0 0 1 1.306-3.135z"/></g><g><path fill="#00adf4" d="M83.71 173.441v-.002c-9.263-9.701-11.324-21.339-11.779-26.337-.092-1.015-1.312-1.51-2.113-.856l-10.712 8.764a3.569 3.569 0 0 0-1.306 3.135c1.168 10.98 5.522 20.035 10.055 26.752 6.924-14.783 15.855-11.456 15.855-11.456z"/></g><g><path fill="#35355e" d="M93.793 103.26c-11.846.79-13.08 10.429-12.837 15.779.05 1.091 1.626 1.568 2.527.782 3.001-2.622 7.464-2.824 12.963-4.125-7.835-5.357-2.661-12.424-2.653-12.436z"/></g></g></g></g></svg>