<svg xmlns="http://www.w3.org/2000/svg" width="200" height="196" viewBox="0 0 200 196"><g><g><g/><g><path fill="#673389" d="M200 97.938c0 53.903-44.771 97.598-100 97.598-55.23 0-100-43.695-100-97.598S44.77.34 100 .34c55.229 0 100 43.695 100 97.598z"/></g><g><path fill="#17a388" d="M149.262 171.737v11.15c-14.54 8.05-31.352 12.648-49.266 12.648-10.559 0-20.73-1.598-30.286-4.557a100.655 100.655 0 0 1-18.98-8.091v-11.15c0-19.03 15.018-34.64 34.123-36.146 1.004-.08 2.016-.121 3.041-.121h24.2c2.862 0 5.645.311 8.318.908 16.523 3.69 28.85 18.121 28.85 35.36z"/></g><g><path fill="#27ba9e" d="M149.27 171.737v11.15a100.618 100.618 0 0 1-28.906 10.62 102.293 102.293 0 0 1-17.816 1.995c-.844.021-1.694.033-2.542.033-10.56 0-20.73-1.598-30.286-4.557v-19.24c0-2.571.273-5.08.795-7.5a35.603 35.603 0 0 1 6.05-13.48c6.734-9.252 17.807-15.288 30.322-15.288h5.216c20.53 0 37.167 16.237 37.167 36.267z"/></g><g><path fill="#17a388" d="M100 150.316l-16.73 9.074-5.09-23.104 10.396-5.976"/></g><g><path fill="#17a388" d="M100 150.316l16.73 9.074 5.09-23.104-10.396-5.976"/></g><g><path fill="#eaa27f" d="M113.258 121.5v15.881c0 5.814-3.927 10.729-9.338 12.36a13.562 13.562 0 0 1-3.923.578c-7.321 0-13.257-5.793-13.257-12.938V121.5z"/></g><g><path fill="#f6ba97" d="M113.257 136.37v1.007c0 5.814-3.928 10.728-9.338 12.36-4.882-1.465-8.552-5.607-9.229-10.676a46.48 46.48 0 0 0 10.034-.499 45.84 45.84 0 0 0 8.533-2.192z"/></g><g><path fill="#f6ba97" d="M63.63 95.474c0 5.99-4.483 10.958-10.355 11.88-.64.101-1.301.153-1.974.153-6.812 0-12.331-5.385-12.331-12.033 0-6.647 5.52-12.034 12.33-12.034.674 0 1.334.054 1.975.155 5.872.922 10.355 5.888 10.355 11.88z"/></g><g><path fill="#eaa27f" d="M63.63 95.47c0 5.99-4.483 10.957-10.354 11.88a43.74 43.74 0 0 1-1.636-11.88c0-4.112.57-8.096 1.636-11.88 5.871.922 10.354 5.888 10.354 11.88z"/></g><g><path fill="#eaa27f" d="M55.705 95.47c0 2.376-1.973 4.302-4.407 4.302s-4.408-1.926-4.408-4.301 1.974-4.301 4.408-4.301 4.407 1.926 4.407 4.3z"/></g><g><path fill="#f6ba97" d="M136.37 95.474c0 5.99 4.483 10.958 10.355 11.88.642.101 1.301.153 1.974.153 6.812 0 12.33-5.385 12.33-12.033 0-6.647-5.518-12.034-12.33-12.034-.673 0-1.332.054-1.974.155-5.872.922-10.355 5.888-10.355 11.88z"/></g><g><path fill="#eaa27f" d="M136.37 95.47c0 5.99 4.483 10.957 10.355 11.88a43.74 43.74 0 0 0 1.635-11.88c0-4.112-.569-8.096-1.635-11.88-5.872.922-10.355 5.888-10.355 11.88z"/></g><g><path fill="#eaa27f" d="M145.871 72.025v17.05c0 22.28-16.676 40.763-38.513 44.193l-.224.037a46.343 46.343 0 0 1-7.14.541c-25.334 0-45.874-20.045-45.874-44.77v-17.05c0-5.207.911-10.211 2.592-14.86C62.985 39.742 80 27.25 99.994 27.25h.005c2.427 0 4.815.183 7.142.54 21.942 3.347 38.73 21.879 38.73 44.235z"/></g><g><path fill="#eaa27f" d="M153.105 95.47c0 2.376-1.973 4.302-4.408 4.302-2.434 0-4.407-1.926-4.407-4.301s1.973-4.301 4.407-4.301c2.435 0 4.408 1.926 4.408 4.3z"/></g><g><path fill="#f6ba97" d="M145.874 72.025v17.05c0 22.28-16.676 40.763-38.513 44.192-.073.012-.151.024-.224.038-21.944-3.347-38.727-21.878-38.727-44.23v-17.05c0-22.357 16.788-40.889 38.734-44.235 13.788 2.104 25.544 10.203 32.372 21.48a43.753 43.753 0 0 1 6.358 22.755z"/></g><g><path fill="#2f373b" d="M90.228 86.47c0 2.805-2.328 5.078-5.203 5.078-2.875 0-5.205-2.273-5.205-5.078 0-2.806 2.33-5.08 5.205-5.08s5.203 2.274 5.203 5.08z"/></g><g><path fill="#2f373b" d="M120.18 86.47c0 2.805-2.33 5.078-5.205 5.078s-5.205-2.273-5.205-5.078c0-2.806 2.33-5.08 5.205-5.08s5.205 2.274 5.205 5.08z"/></g><g><path fill="#fff" d="M89.17 85.576c0 1.202-.998 2.176-2.23 2.176-1.23 0-2.23-.974-2.23-2.176 0-1.202 1-2.176 2.23-2.176 1.232 0 2.23.974 2.23 2.176z"/></g><g><path fill="#fff" d="M119.37 85.576c0 1.202-1 2.176-2.23 2.176-1.232 0-2.23-.974-2.23-2.176 0-1.202.998-2.176 2.23-2.176 1.23 0 2.23.974 2.23 2.176z"/></g><g><path fill="#eaa27f" d="M105.203 97.263H94.795c-1.241 0-2.245-.982-2.245-2.192 0-1.21 1.004-2.191 2.245-2.191h10.408c1.24 0 2.244.981 2.244 2.19 0 1.211-1.004 2.193-2.244 2.193z"/></g><g><path fill="#eaa27f" d="M100.002 111.127c-3.84 0-7.683-.94-11.183-2.82a1.965 1.965 0 0 1-.806-2.704c.543-.963 1.784-1.315 2.771-.786a19.452 19.452 0 0 0 18.437 0c.986-.53 2.228-.179 2.771.786a1.967 1.967 0 0 1-.806 2.705 23.624 23.624 0 0 1-11.184 2.819z"/></g><g><g><path fill="#2f373b" d="M70.9 111.17h17.963c6.154 0 11.142-4.87 11.142-10.876V98.17H82.042c-6.154 0-11.142 4.868-11.142 10.874z"/></g><g><path fill="#2f373b" d="M129.105 111.17h-17.961c-6.154 0-11.144-4.87-11.144-10.876V98.17h17.963c6.154 0 11.142 4.868 11.142 10.874z"/></g><g><path fill="#2f373b" d="M104.488 166.963c0 2.42-2.01 4.381-4.489 4.381-2.48 0-4.489-1.961-4.489-4.381s2.01-4.383 4.49-4.383c2.479 0 4.488 1.963 4.488 4.383z"/></g><g><path fill="#2f373b" d="M104.488 185.553c0 2.42-2.01 4.381-4.489 4.381-2.48 0-4.489-1.961-4.489-4.381s2.01-4.383 4.49-4.383c2.479 0 4.488 1.963 4.488 4.383z"/></g><g><path fill="#2f373b" d="M145.87 72.024v10.871c-6.526-.2-11.77-8.322-11.77-18.317 0-6.396 2.151-12.035 5.412-15.308a43.752 43.752 0 0 1 6.359 22.754z"/></g><g><path fill="#2f373b" d="M54.12 72.024v10.871c6.528-.2 11.772-8.322 11.772-18.317 0-6.396-2.151-12.035-5.412-15.308a43.754 43.754 0 0 0-6.36 22.754z"/></g></g></g></g></svg>