<svg xmlns="http://www.w3.org/2000/svg" width="200" height="196" viewBox="0 0 200 196"><g><g><g/><g><path fill="#00388b" d="M200 97.958c0 14.313-3.157 27.907-8.829 40.154-15.686 33.872-50.609 9.789-91.171 9.789-40.558 0-75.478 24.089-91.167-9.779C3.16 125.874 0 112.275 0 97.958 0 44.055 44.77.36 100 .36c55.229 0 100 43.695 100 97.598z"/></g><g><path fill="#ebeaec" d="M174.92 115.52c-3.236-4.503-8.082-7.657-13.585-8.845l-40.368-8.715H79.033l-40.369 8.715c-5.502 1.188-10.349 4.343-13.585 8.845L8.83 138.117c15.686 33.871 50.607 57.441 91.17 57.441 40.562 0 75.483-23.57 91.169-57.441z"/></g><g><path fill="#fefefe" d="M99.963 97.96h-20.93l-40.369 8.715c-5.502 1.188-10.348 4.343-13.585 8.845L8.83 138.117c15.686 33.871 50.606 57.44 91.167 57.441z"/></g><g><path fill="#00a5fb" d="M107.547 144.784L100 142.02l-7.549 2.764-5.76 49.907a103.17 103.17 0 0 0 26.617 0z"/></g><g><path fill="#00adfc" d="M110.234 141.3a5.446 5.446 0 0 1-2.523 3.451c-1.816 1.084-4.647 2.393-7.727 2.393s-5.895-1.307-7.702-2.391a5.443 5.443 0 0 1-2.511-3.443l-3.441-14.97h27.344z"/></g><g><path fill="#ffbf9d" d="M120.965 109.976s-4.735 10.561-20.967 10.561-20.967-10.561-20.967-10.561L73.17 68.83h53.656z"/></g><g><path fill="#f7ad8d" d="M126.826 68.83H73.17l3.894 27.338 5.887 5.78c2.772 2.723 6.62 4.284 10.551 4.284h12.992c3.932 0 7.779-1.56 10.551-4.285l5.887-5.78z"/></g><g><path fill="#ffbf9d" d="M134.258 43.427l3.859-1.07c1.263-.352 2.608.187 3.255 1.304l3.555 6.139c.757 1.307.83 2.889.197 4.259l-5.149 11.114c-.78 1.686-2.502 2.77-4.399 2.77-2.665 0-4.826-2.109-4.826-4.71V47.958c0-2.105 1.433-3.956 3.508-4.53z"/></g><g><path fill="#f7ad8d" d="M65.744 43.427l-3.86-1.07c-1.263-.352-2.607.187-3.254 1.304L55.075 49.8a4.616 4.616 0 0 0-.197 4.259l5.148 11.114c.781 1.686 2.503 2.77 4.4 2.77 2.665 0 4.826-2.109 4.826-4.71V47.958c0-2.105-1.433-3.956-3.508-4.53z"/></g><g><path fill="#ffd4bd" d="M78.637 12.406c-8.285 5.041-13.307 13.912-13.307 23.44v36.172c0 2.325.943 4.556 2.621 6.204l19.156 18.812a9.131 9.131 0 0 0 6.397 2.598h12.99a9.134 9.134 0 0 0 6.396-2.598l19.155-18.812a8.692 8.692 0 0 0 2.623-6.204V39.915c-.002-25.36-28.59-44.205-56.03-27.509z"/></g><g><g><path fill="#ffbf9d" d="M85.961 12.404c5.944-3.616 11.94-5.562 17.69-6.138-7.855-.803-16.489.951-25.014 6.138-8.285 5.041-13.307 13.913-13.307 23.44v36.173a8.69 8.69 0 0 0 2.621 6.204l19.155 18.812c-.002-.003-14.452-23.043-14.452-25.016V35.845c0-9.528 5.022-18.4 13.307-23.44z"/></g><g><path fill="#ffbf9d" d="M100.004 41.04h-2.446c-1.935 0-3.444 1.637-3.24 3.516l2.447 22.423c.175 1.618 1.573 2.845 3.239 2.845s3.064-1.227 3.24-2.845l2.446-22.423c.204-1.88-1.305-3.516-3.24-3.516z"/></g><g><path fill="#ffbf9d" d="M91.775 78.82c.514.462 1.189.72 1.889.72h12.665c.7 0 1.375-.258 1.889-.72l1.014-.915c.559-.504.194-1.415-.567-1.415H91.328c-.762 0-1.126.911-.568 1.415z"/></g></g><g><path fill="#bd200f" d="M99.997.36C77.651.36 59.47 18.103 59.47 39.912v.276l.288 2.92 5.782 17.077c3.93 0 7.114-3.108 7.114-6.943V32.511l8.137-7.942h38.413l8.137 7.942v20.731c0 3.834 3.185 6.943 7.114 6.943h.21l5.571-17.077.289-2.922v-.274c0-21.81-18.181-39.552-40.528-39.552z"/></g><g><path fill="#e83826" d="M111.766 44.648H88.228c-12.53 0-22.688-9.915-22.688-22.143V2.266c0-1.053.874-1.906 1.953-1.906h44.273c12.531 0 22.689 9.914 22.689 22.143 0 12.23-10.158 22.145-22.689 22.145z"/></g><g><path fill="#db2a17" d="M77.259 22.503V2.266c0-1.053.874-1.906 1.953-1.906H67.493c-1.079 0-1.953.853-1.953 1.906v20.237c0 12.23 10.158 22.144 22.688 22.144h11.719c-12.53.001-22.688-9.914-22.688-22.144z"/></g><g><path fill="#fefefe" d="M123.343 93.29L100 120.535v6.778l10.371 10.411c1.656 1.662 4.48 1.32 5.667-.688l15.546-26.277c.64-1.08.641-2.41.003-3.491z"/></g><g><path fill="#ebeaec" d="M76.662 93.29l23.343 27.245v6.778l-10.372 10.411c-1.655 1.662-4.48 1.32-5.667-.688L68.42 110.759a3.42 3.42 0 0 1-.003-3.491z"/></g><g><path fill="#ebeaec" d="M41.32 132.85L30.9 168.504a99.981 99.981 0 0 0 12.851 10.155z"/></g><g><path fill="#dad9dd" d="M169.126 168.486l-10.415-35.636-2.431 45.792a100.084 100.084 0 0 0 12.846-10.156z"/></g></g></g></svg>