<svg width="52" height="91" viewBox="0 0 52 91" fill="none" xmlns="http://www.w3.org/2000/svg">
<path d="M50.5881 42.1L11.1992 2.19974C10.2882 1.27615 9.07204 0.767334 7.77532 0.767334C6.47859 0.767334 5.26246 1.27615 4.35144 2.19974L1.45072 5.13744C-0.436799 7.05169 -0.436799 10.1629 1.45072 12.0742L34.5266 45.5801L1.41402 79.1231C0.503003 80.0467 0 81.2779 0 82.5908C0 83.9051 0.503003 85.1363 1.41402 86.0606L4.31474 88.9976C5.22648 89.9212 6.44189 90.43 7.73862 90.43C9.03534 90.43 10.2515 89.9212 11.1625 88.9976L50.5881 49.0609C51.5013 48.1343 52.0029 46.8973 52 45.5823C52.0029 44.2621 51.5013 43.0258 50.5881 42.1Z" fill="#4285F4" fill-opacity="0.9"/>
</svg>
