<svg width="52" height="91" viewBox="0 0 52 91" fill="none" xmlns="http://www.w3.org/2000/svg">
<path d="M17.4739 45.6176L50.5867 12.0736C51.4984 11.1522 52 9.92021 52 8.60662C52 7.2923 51.4984 6.06108 50.5867 5.13821L47.6851 2.20048C46.7748 1.27615 45.5579 0.767334 44.2612 0.767334C42.9644 0.767334 41.749 1.27615 40.8379 2.20048L1.41192 42.1375C0.497279 43.0633 -0.00357884 44.3004 1.92797e-05 45.6154C-0.00357884 46.9363 0.496559 48.1719 1.41192 49.0984L40.8012 88.9968C41.7123 89.9212 42.9277 90.43 44.2252 90.43C45.522 90.43 46.7374 89.9212 47.6492 88.9968L50.55 86.0591C52.4375 84.147 52.4375 81.0344 50.55 79.123L17.4739 45.6176Z" fill="#4285F4" fill-opacity="0.75"/>
</svg>
