<svg xmlns="http://www.w3.org/2000/svg" width="1772" height="735" viewBox="0 0 1772 735"><g><g><g><path fill="#fbbc05" d="M1456 503.5c0 12.426-10.074 22.5-22.5 22.5s-22.5-10.074-22.5-22.5 10.074-22.5 22.5-22.5 22.5 10.074 22.5 22.5z"/></g><g><path fill="#fbbc05" d="M582 77.5c0 12.426-10.074 22.5-22.5 22.5S537 89.926 537 77.5 547.074 55 559.5 55 582 65.074 582 77.5z"/></g><g><path fill="#fbbc05" d="M843 451.5c0 12.426-10.074 22.5-22.5 22.5S798 463.926 798 451.5s10.074-22.5 22.5-22.5 22.5 10.074 22.5 22.5z"/></g><g><path fill="#4285f4" d="M1735 292.5c0 12.426-10.074 22.5-22.5 22.5s-22.5-10.074-22.5-22.5 10.074-22.5 22.5-22.5 22.5 10.074 22.5 22.5z"/></g><g><path fill="#fbbc05" d="M1772 697.5c0 20.71-16.79 37.5-37.5 37.5s-37.5-16.79-37.5-37.5 16.79-37.5 37.5-37.5 37.5 16.79 37.5 37.5z"/></g><g><path fill="#4285f4" d="M1027 251c0 27.614-22.386 50-50 50s-50-22.386-50-50 22.386-50 50-50 50 22.386 50 50z"/></g><g><path fill="#fbbc05" d="M268.87 42c0 20.71-16.79 37.5-37.5 37.5s-37.5-16.79-37.5-37.5 16.79-37.5 37.5-37.5 37.5 16.79 37.5 37.5z"/></g><g><path fill="#34a853" d="M1167 538.5c0 12.426-10.074 22.5-22.5 22.5s-22.5-10.074-22.5-22.5 10.074-22.5 22.5-22.5 22.5 10.074 22.5 22.5z"/></g><g><path fill="#fbbc05" d="M1614 50c0 27.614-22.386 50-50 50s-50-22.386-50-50 22.386-50 50-50 50 22.386 50 50z"/></g><g transform="rotate(135 228.5 533)"><path fill="#34a853" d="M265.53 570.53h-75v-75h75z"/></g><g transform="rotate(43.6 39 305)"><path fill="#ea4335" d="M11.38 277.38h55v55h-55z"/></g><g transform="rotate(135.6 1585.5 469)"><path fill="#ea4335" d="M1622.53 506.53h-75v-75h75z"/></g><g transform="rotate(53.46 633 344)"><path fill="#4285f4" d="M634.96 301.96l30.31 52.5h-60.62z"/></g><g transform="rotate(52.52 598 555.5)"><path fill="#ea4335" d="M600.05 526.05l21.65 37.5h-43.3z"/></g><g transform="rotate(133.21 1273.5 512.5)"><path fill="#ea4335" d="M1271 521.5l-21.65-37.5h43.3z"/></g><g transform="rotate(148.47 814.5 626)"><path fill="#4285f4" d="M808.38 637.88l-21.65-37.5h43.3z"/></g></g></g></svg>