<svg xmlns="http://www.w3.org/2000/svg" width="60" height="60" viewBox="0 0 60 60"><g><g><g><path fill="#4285f4" d="M59.586 30c0 16.569-13.339 30-29.793 30S0 46.569 0 30C0 13.431 13.339 0 29.793 0s29.793 13.431 29.793 30z"/></g><g><g/><g><path fill="#fff" d="M44.077 37.684c0 1.67-1.356 3.036-3.015 3.036H18.515c-1.658 0-3.015-1.366-3.015-3.036V22.326c0-1.67 1.357-3.036 3.015-3.036h22.547c1.659 0 3.015 1.366 3.015 3.036v15.358z"/></g><g><path fill="#d50707" d="M18.515 40.72h.633V24.53l10.632 8.623 10.632-8.624v16.19h.65c1.553 0 2.84-1.197 2.999-2.72V22.326c0-1.67-1.357-3.036-3.015-3.036L29.78 28.46l-11.265-9.17c-1.658 0-3.015 1.366-3.015 3.036v15.358c0 1.67 1.357 3.036 3.015 3.036z"/></g><g><path d="M41.07 18.67c1.998 0 3.623 1.637 3.623 3.648v15.358c0 2.012-1.625 3.648-3.623 3.648H18.523c-1.998 0-3.623-1.636-3.623-3.648V22.318c0-2.011 1.625-3.648 3.623-3.648zm-20.828 1.224l9.546 7.77 9.546-7.77zM39.812 40.1V25.8l-9.642 7.822a.605.605 0 0 1-.763 0l-9.643-7.821V40.1zm3.665-17.782a2.42 2.42 0 0 0-2.218-2.415L30.17 28.928a.604.604 0 0 1-.765 0L18.32 19.904a2.42 2.42 0 0 0-2.203 2.414v15.358a2.418 2.418 0 0 0 2.407 2.424h.025V24.52c0-.235.134-.45.346-.552a.605.605 0 0 1 .644.076l10.25 8.314 10.251-8.314a.604.604 0 0 1 .644-.076.612.612 0 0 1 .346.552V40.1h.041a2.418 2.418 0 0 0 2.407-2.424z"/></g><g><path d="M38.088 30.417c.135 0 .27-.045.383-.137l.211-.172a.615.615 0 0 0 .09-.86.605.605 0 0 0-.855-.092l-.212.173a.615.615 0 0 0-.09.86c.12.15.296.228.473.228z"/></g><g><path d="M32.208 35.161c.135 0 .27-.045.383-.136l4.347-3.497a.615.615 0 0 0 .09-.86.605.605 0 0 0-.855-.092l-4.348 3.497a.615.615 0 0 0-.09.86c.12.15.296.228.473.228z"/></g></g></g></g></svg>