<svg xmlns="http://www.w3.org/2000/svg" width="61" height="60" viewBox="0 0 61 60"><g><g><g><path fill="#4285f4" d="M60.845 30c0 16.569-13.62 30-30.422 30S0 46.569 0 30C0 13.431 13.62 0 30.423 0c16.801 0 30.422 13.431 30.422 30z"/></g><g><g/><g><path fill="#424d63" d="M41.882 37.324a2.325 2.325 0 0 1 .403 3.635l-.487.48-8.648-6.385 1.235-1.217a2.401 2.401 0 0 1 2.956-.32z"/></g><g><path fill="#424d63" d="M24.68 21.153a2.319 2.319 0 0 1-.324 2.915l-1.235 1.217-5.881-8.528.487-.48c1.076-1.06 2.87-.866 3.686.399z"/></g><g><path fill="#e87288" d="M41.795 41.436l-1.172 1.155c-8.76 8.639-33.493-15.872-25.148-24.1l1.764-1.741 5.882 8.528-1.226 1.209a1.16 1.16 0 0 0-.257 1.276c-.067-.1 1.778 5.809 8.989 8.75a1.2 1.2 0 0 0 1.294-.254l1.225-1.208z"/></g><g><path d="M26.994 37.872a.58.58 0 0 0 0 .828.6.6 0 0 0 .84 0 .58.58 0 0 0 0-.828.6.6 0 0 0-.84 0z"/></g><g><path d="M42.231 36.853a2.905 2.905 0 0 1 .469 4.52l-1.659 1.635c-2.542 2.507-6.134 2.357-9.51 1.14-3.412-1.229-7.133-3.722-10.479-7.022-3.268-3.222-5.751-6.795-6.991-10.06-1.449-3.812-1.105-6.919.991-8.987l1.759-1.734v-.001l.493-.486c1.34-1.32 3.573-1.084 4.598.484l3.258 4.465.019.027a2.881 2.881 0 0 1-.406 3.644l-2.46 2.426a.577.577 0 0 0-.128.638c.016.04.028.08.036.12.062.191.536 1.543 1.85 3.244 1.722 2.23 4.003 3.936 6.78 5.069.223.09.477.04.648-.128l2.46-2.425a2.984 2.984 0 0 1 3.695-.4c.023.015.045.03.066.048zm-5.248-2.862a1.79 1.79 0 0 0-2.184.26l-.75.74 7.687 5.675.123-.122a1.744 1.744 0 0 0-.303-2.726.574.574 0 0 1-.065-.048zM18.145 16.687l-.14.137 5.201 7.543.727-.717a1.728 1.728 0 0 0 .252-2.174l-3.257-4.462a1.798 1.798 0 0 0-2.783-.327zM40.2 42.179l.686-.676-7.687-5.676-.86.85a1.796 1.796 0 0 1-1.943.38c-3.802-1.55-6.128-3.913-7.409-5.621-.87-1.16-1.734-2.736-1.921-3.495a1.733 1.733 0 0 1 .407-1.866l.877-.865-5.201-7.542-1.257 1.24c-2.203 2.171-1.607 5.411-.72 7.747 1.182 3.111 3.568 6.536 6.72 9.643 3.225 3.18 6.793 5.578 10.045 6.75 2.467.889 5.903 1.46 8.263-.869z"/></g><g><path d="M25.885 36.475c-.628-.542-1.713-1.476-2.285-2.056-1.402-1.42-2.873-3.142-3.747-4.387a.6.6 0 0 0-.827-.148.58.58 0 0 0-.15.816c1.103 1.569 2.723 3.372 3.872 4.536.604.613 1.698 1.554 2.353 2.12a.6.6 0 0 0 .839-.054.58.58 0 0 0-.055-.827z"/></g></g></g></g></svg>